<mxfile host="Electron" agent="Mozilla/5.0 (Macintosh; Intel Mac OS X 10_15_7) AppleWebKit/537.36 (KHTML, like Gecko) draw.io/24.7.8 Chrome/128.0.6613.36 Electron/32.0.1 Safari/537.36" version="24.7.8">
  <diagram name="Page-1" id="BbfExAIW7bA7TXD23ZCO">
    <mxGraphModel dx="2333" dy="1631" grid="1" gridSize="10" guides="1" tooltips="1" connect="1" arrows="1" fold="1" page="1" pageScale="1" pageWidth="850" pageHeight="1100" math="0" shadow="0">
      <root>
        <mxCell id="0" />
        <mxCell id="1" parent="0" />
        <mxCell id="5P9c0Va3JqGW_WhmwolL-4" value="" style="verticalLabelPosition=bottom;verticalAlign=top;html=1;shape=mxgraph.basic.rect;fillColor2=none;strokeWidth=1;size=20;indent=5;" parent="1" vertex="1">
          <mxGeometry x="180" y="180" width="200" height="83" as="geometry" />
        </mxCell>
        <mxCell id="5P9c0Va3JqGW_WhmwolL-5" value="" style="verticalLabelPosition=bottom;verticalAlign=top;html=1;shape=mxgraph.basic.rect;fillColor2=none;strokeWidth=1;size=20;indent=5;" parent="1" vertex="1">
          <mxGeometry x="180" y="263" width="200" height="100" as="geometry" />
        </mxCell>
        <mxCell id="5P9c0Va3JqGW_WhmwolL-6" value="" style="endArrow=none;dashed=1;html=1;rounded=0;" parent="1" edge="1">
          <mxGeometry width="50" height="50" relative="1" as="geometry">
            <mxPoint x="400" y="1023" as="sourcePoint" />
            <mxPoint x="400" y="80" as="targetPoint" />
          </mxGeometry>
        </mxCell>
        <mxCell id="5P9c0Va3JqGW_WhmwolL-7" value="Stack" style="text;html=1;align=center;verticalAlign=middle;whiteSpace=wrap;rounded=0;fontSize=20;fontStyle=0" parent="1" vertex="1">
          <mxGeometry x="322" y="96" width="60" height="30" as="geometry" />
        </mxCell>
        <mxCell id="5P9c0Va3JqGW_WhmwolL-8" value="Heap" style="text;html=1;align=center;verticalAlign=middle;whiteSpace=wrap;rounded=0;fontSize=20;fontStyle=0" parent="1" vertex="1">
          <mxGeometry x="410" y="96" width="60" height="30" as="geometry" />
        </mxCell>
        <mxCell id="QlX3soP_JLZuqbn-heM_-1" value="" style="verticalLabelPosition=bottom;verticalAlign=top;html=1;shape=mxgraph.basic.rect;fillColor2=none;strokeWidth=1;size=15;indent=5;" parent="1" vertex="1">
          <mxGeometry x="180" y="777" width="200" height="180" as="geometry" />
        </mxCell>
        <mxCell id="QlX3soP_JLZuqbn-heM_-2" value="" style="verticalLabelPosition=bottom;verticalAlign=top;html=1;shape=mxgraph.basic.rect;fillColor2=none;strokeWidth=1;size=20;indent=5;" parent="1" vertex="1">
          <mxGeometry x="180" y="957" width="200" height="50" as="geometry" />
        </mxCell>
        <mxCell id="QlX3soP_JLZuqbn-heM_-3" value="AR&lt;div style=&quot;font-size: 14px;&quot;&gt;main&lt;/div&gt;" style="text;html=1;align=center;verticalAlign=middle;whiteSpace=wrap;rounded=0;rotation=-90;fontSize=14;" parent="1" vertex="1">
          <mxGeometry x="115" y="854" width="60" height="30" as="geometry" />
        </mxCell>
        <mxCell id="QlX3soP_JLZuqbn-heM_-12" value="" style="whiteSpace=wrap;html=1;aspect=fixed;" parent="1" vertex="1">
          <mxGeometry x="210" y="801" width="147" height="147" as="geometry" />
        </mxCell>
        <mxCell id="QlX3soP_JLZuqbn-heM_-17" value="" style="rounded=0;whiteSpace=wrap;html=1;" parent="1" vertex="1">
          <mxGeometry x="443" y="633" width="205" height="236" as="geometry" />
        </mxCell>
        <mxCell id="QlX3soP_JLZuqbn-heM_-18" value="?" style="rounded=0;whiteSpace=wrap;html=1;" parent="1" vertex="1">
          <mxGeometry x="280" y="824.5" width="50" height="25" as="geometry" />
        </mxCell>
        <mxCell id="QlX3soP_JLZuqbn-heM_-19" value="sizeM" style="text;html=1;align=center;verticalAlign=middle;whiteSpace=wrap;rounded=0;" parent="1" vertex="1">
          <mxGeometry x="222" y="822" width="60" height="30" as="geometry" />
        </mxCell>
        <mxCell id="QlX3soP_JLZuqbn-heM_-21" value="cursorM" style="text;html=1;align=center;verticalAlign=middle;whiteSpace=wrap;rounded=0;" parent="1" vertex="1">
          <mxGeometry x="222" y="862" width="60" height="30" as="geometry" />
        </mxCell>
        <mxCell id="QlX3soP_JLZuqbn-heM_-22" value="?" style="rounded=0;whiteSpace=wrap;html=1;" parent="1" vertex="1">
          <mxGeometry x="282" y="862" width="50" height="30" as="geometry" />
        </mxCell>
        <mxCell id="QlX3soP_JLZuqbn-heM_-23" value="?" style="rounded=0;whiteSpace=wrap;html=1;" parent="1" vertex="1">
          <mxGeometry x="280" y="904.5" width="50" height="25" as="geometry" />
        </mxCell>
        <mxCell id="QlX3soP_JLZuqbn-heM_-25" value="headM" style="text;html=1;align=center;verticalAlign=middle;whiteSpace=wrap;rounded=0;" parent="1" vertex="1">
          <mxGeometry x="222" y="902" width="60" height="30" as="geometry" />
        </mxCell>
        <mxCell id="QlX3soP_JLZuqbn-heM_-28" value="No Args" style="text;html=1;align=center;verticalAlign=middle;whiteSpace=wrap;rounded=0;" parent="1" vertex="1">
          <mxGeometry x="254" y="967" width="60" height="30" as="geometry" />
        </mxCell>
        <mxCell id="QlX3soP_JLZuqbn-heM_-16" value="" style="rounded=0;whiteSpace=wrap;html=1;" parent="1" vertex="1">
          <mxGeometry x="476" y="653" width="140" height="85" as="geometry" />
        </mxCell>
        <mxCell id="QlX3soP_JLZuqbn-heM_-31" value="" style="verticalLabelPosition=bottom;verticalAlign=top;html=1;shape=mxgraph.basic.rect;fillColor2=none;strokeWidth=1;size=15;indent=5;" parent="1" vertex="1">
          <mxGeometry x="182" y="403" width="200" height="250" as="geometry" />
        </mxCell>
        <mxCell id="QlX3soP_JLZuqbn-heM_-30" value="8001" style="whiteSpace=wrap;html=1;verticalAlign=top;strokeWidth=1;" parent="1" vertex="1">
          <mxGeometry x="250" y="423" width="60" height="30" as="geometry" />
        </mxCell>
        <mxCell id="QlX3soP_JLZuqbn-heM_-32" value="" style="verticalLabelPosition=bottom;verticalAlign=top;html=1;shape=mxgraph.basic.rect;fillColor2=none;strokeWidth=1;size=20;indent=5;" parent="1" vertex="1">
          <mxGeometry x="182" y="652" width="200" height="50" as="geometry" />
        </mxCell>
        <mxCell id="QlX3soP_JLZuqbn-heM_-33" value="AR&lt;div style=&quot;font-size: 14px;&quot;&gt;dictionary_tests&lt;/div&gt;" style="text;html=1;align=center;verticalAlign=middle;whiteSpace=wrap;rounded=0;rotation=-90;fontSize=14;" parent="1" vertex="1">
          <mxGeometry x="90" y="538" width="92" height="30" as="geometry" />
        </mxCell>
        <mxCell id="QlX3soP_JLZuqbn-heM_-34" value="" style="whiteSpace=wrap;html=1;aspect=fixed;" parent="1" vertex="1">
          <mxGeometry x="212" y="491" width="147" height="147" as="geometry" />
        </mxCell>
        <mxCell id="QlX3soP_JLZuqbn-heM_-35" value="2" style="rounded=0;whiteSpace=wrap;html=1;" parent="1" vertex="1">
          <mxGeometry x="282" y="514.5" width="50" height="25" as="geometry" />
        </mxCell>
        <mxCell id="QlX3soP_JLZuqbn-heM_-36" value="sizeM" style="text;html=1;align=center;verticalAlign=middle;whiteSpace=wrap;rounded=0;" parent="1" vertex="1">
          <mxGeometry x="224" y="512" width="60" height="30" as="geometry" />
        </mxCell>
        <mxCell id="QlX3soP_JLZuqbn-heM_-37" value="cursorM" style="text;html=1;align=center;verticalAlign=middle;whiteSpace=wrap;rounded=0;" parent="1" vertex="1">
          <mxGeometry x="224" y="552" width="60" height="30" as="geometry" />
        </mxCell>
        <mxCell id="QlX3soP_JLZuqbn-heM_-38" value="0" style="rounded=0;whiteSpace=wrap;html=1;" parent="1" vertex="1">
          <mxGeometry x="284" y="552" width="50" height="30" as="geometry" />
        </mxCell>
        <mxCell id="QlX3soP_JLZuqbn-heM_-39" value="" style="rounded=0;whiteSpace=wrap;html=1;" parent="1" vertex="1">
          <mxGeometry x="282" y="594.5" width="50" height="25" as="geometry" />
        </mxCell>
        <mxCell id="QlX3soP_JLZuqbn-heM_-40" value="headM" style="text;html=1;align=center;verticalAlign=middle;whiteSpace=wrap;rounded=0;" parent="1" vertex="1">
          <mxGeometry x="224" y="592" width="60" height="30" as="geometry" />
        </mxCell>
        <mxCell id="QlX3soP_JLZuqbn-heM_-41" value="No Args" style="text;html=1;align=center;verticalAlign=middle;whiteSpace=wrap;rounded=0;" parent="1" vertex="1">
          <mxGeometry x="253.5" y="665" width="60" height="30" as="geometry" />
        </mxCell>
        <mxCell id="QlX3soP_JLZuqbn-heM_-68" value="" style="shape=table;startSize=0;container=1;collapsible=0;childLayout=tableLayout;fontSize=16;" parent="1" vertex="1">
          <mxGeometry x="443" y="473" width="431" height="31" as="geometry" />
        </mxCell>
        <mxCell id="QlX3soP_JLZuqbn-heM_-69" value="" style="shape=tableRow;horizontal=0;startSize=0;swimlaneHead=0;swimlaneBody=0;strokeColor=inherit;top=0;left=0;bottom=0;right=0;collapsible=0;dropTarget=0;fillColor=none;points=[[0,0.5],[1,0.5]];portConstraint=eastwest;fontSize=16;" parent="QlX3soP_JLZuqbn-heM_-68" vertex="1">
          <mxGeometry width="431" height="31" as="geometry" />
        </mxCell>
        <mxCell id="QlX3soP_JLZuqbn-heM_-82" value="&#39;D&#39;" style="shape=partialRectangle;html=1;whiteSpace=wrap;connectable=0;strokeColor=inherit;overflow=hidden;fillColor=none;top=0;left=0;bottom=0;right=0;pointerEvents=1;fontSize=16;" parent="QlX3soP_JLZuqbn-heM_-69" vertex="1">
          <mxGeometry width="51" height="31" as="geometry">
            <mxRectangle width="51" height="31" as="alternateBounds" />
          </mxGeometry>
        </mxCell>
        <mxCell id="QlX3soP_JLZuqbn-heM_-81" value="&#39;i&#39;" style="shape=partialRectangle;html=1;whiteSpace=wrap;connectable=0;strokeColor=inherit;overflow=hidden;fillColor=none;top=0;left=0;bottom=0;right=0;pointerEvents=1;fontSize=16;" parent="QlX3soP_JLZuqbn-heM_-69" vertex="1">
          <mxGeometry x="51" width="51" height="31" as="geometry">
            <mxRectangle width="51" height="31" as="alternateBounds" />
          </mxGeometry>
        </mxCell>
        <mxCell id="QlX3soP_JLZuqbn-heM_-70" value="&#39;l&#39;" style="shape=partialRectangle;html=1;whiteSpace=wrap;connectable=0;strokeColor=inherit;overflow=hidden;fillColor=none;top=0;left=0;bottom=0;right=0;pointerEvents=1;fontSize=16;" parent="QlX3soP_JLZuqbn-heM_-69" vertex="1">
          <mxGeometry x="102" width="51" height="31" as="geometry">
            <mxRectangle width="51" height="31" as="alternateBounds" />
          </mxGeometry>
        </mxCell>
        <mxCell id="QlX3soP_JLZuqbn-heM_-71" value="&#39;b&#39;" style="shape=partialRectangle;html=1;whiteSpace=wrap;connectable=0;strokeColor=inherit;overflow=hidden;fillColor=none;top=0;left=0;bottom=0;right=0;pointerEvents=1;fontSize=16;" parent="QlX3soP_JLZuqbn-heM_-69" vertex="1">
          <mxGeometry x="153" width="43" height="31" as="geometry">
            <mxRectangle width="43" height="31" as="alternateBounds" />
          </mxGeometry>
        </mxCell>
        <mxCell id="QlX3soP_JLZuqbn-heM_-83" value="&#39;e&#39;" style="shape=partialRectangle;html=1;whiteSpace=wrap;connectable=0;strokeColor=inherit;overflow=hidden;fillColor=none;top=0;left=0;bottom=0;right=0;pointerEvents=1;fontSize=16;" parent="QlX3soP_JLZuqbn-heM_-69" vertex="1">
          <mxGeometry x="196" width="55" height="31" as="geometry">
            <mxRectangle width="55" height="31" as="alternateBounds" />
          </mxGeometry>
        </mxCell>
        <mxCell id="QlX3soP_JLZuqbn-heM_-84" value="&#39;r&#39;" style="shape=partialRectangle;html=1;whiteSpace=wrap;connectable=0;strokeColor=inherit;overflow=hidden;fillColor=none;top=0;left=0;bottom=0;right=0;pointerEvents=1;fontSize=16;" parent="QlX3soP_JLZuqbn-heM_-69" vertex="1">
          <mxGeometry x="251" width="62" height="31" as="geometry">
            <mxRectangle width="62" height="31" as="alternateBounds" />
          </mxGeometry>
        </mxCell>
        <mxCell id="QlX3soP_JLZuqbn-heM_-72" value="&#39;t&#39;" style="shape=partialRectangle;html=1;whiteSpace=wrap;connectable=0;strokeColor=inherit;overflow=hidden;fillColor=none;top=0;left=0;bottom=0;right=0;pointerEvents=1;fontSize=16;" parent="QlX3soP_JLZuqbn-heM_-69" vertex="1">
          <mxGeometry x="313" width="59" height="31" as="geometry">
            <mxRectangle width="59" height="31" as="alternateBounds" />
          </mxGeometry>
        </mxCell>
        <mxCell id="QlX3soP_JLZuqbn-heM_-86" value="&#39;\0&#39;" style="shape=partialRectangle;html=1;whiteSpace=wrap;connectable=0;strokeColor=inherit;overflow=hidden;fillColor=none;top=0;left=0;bottom=0;right=0;pointerEvents=1;fontSize=16;" parent="QlX3soP_JLZuqbn-heM_-69" vertex="1">
          <mxGeometry x="372" width="59" height="31" as="geometry">
            <mxRectangle width="59" height="31" as="alternateBounds" />
          </mxGeometry>
        </mxCell>
        <mxCell id="QlX3soP_JLZuqbn-heM_-131" value="" style="shape=table;startSize=0;container=1;collapsible=0;childLayout=tableLayout;fontSize=16;" parent="1" vertex="1">
          <mxGeometry x="948" y="538" width="291" height="30" as="geometry" />
        </mxCell>
        <mxCell id="QlX3soP_JLZuqbn-heM_-132" value="" style="shape=tableRow;horizontal=0;startSize=0;swimlaneHead=0;swimlaneBody=0;strokeColor=inherit;top=0;left=0;bottom=0;right=0;collapsible=0;dropTarget=0;fillColor=none;points=[[0,0.5],[1,0.5]];portConstraint=eastwest;fontSize=16;" parent="QlX3soP_JLZuqbn-heM_-131" vertex="1">
          <mxGeometry width="291" height="30" as="geometry" />
        </mxCell>
        <mxCell id="QlX3soP_JLZuqbn-heM_-146" value="&#39;W&#39;" style="shape=partialRectangle;html=1;whiteSpace=wrap;connectable=0;strokeColor=inherit;overflow=hidden;fillColor=none;top=0;left=0;bottom=0;right=0;pointerEvents=1;fontSize=16;" parent="QlX3soP_JLZuqbn-heM_-132" vertex="1">
          <mxGeometry width="48" height="30" as="geometry">
            <mxRectangle width="48" height="30" as="alternateBounds" />
          </mxGeometry>
        </mxCell>
        <mxCell id="QlX3soP_JLZuqbn-heM_-145" value="&#39;a&#39;" style="shape=partialRectangle;html=1;whiteSpace=wrap;connectable=0;strokeColor=inherit;overflow=hidden;fillColor=none;top=0;left=0;bottom=0;right=0;pointerEvents=1;fontSize=16;" parent="QlX3soP_JLZuqbn-heM_-132" vertex="1">
          <mxGeometry x="48" width="49" height="30" as="geometry">
            <mxRectangle width="49" height="30" as="alternateBounds" />
          </mxGeometry>
        </mxCell>
        <mxCell id="QlX3soP_JLZuqbn-heM_-144" value="&#39;l&#39;" style="shape=partialRectangle;html=1;whiteSpace=wrap;connectable=0;strokeColor=inherit;overflow=hidden;fillColor=none;top=0;left=0;bottom=0;right=0;pointerEvents=1;fontSize=16;" parent="QlX3soP_JLZuqbn-heM_-132" vertex="1">
          <mxGeometry x="97" width="49" height="30" as="geometry">
            <mxRectangle width="49" height="30" as="alternateBounds" />
          </mxGeometry>
        </mxCell>
        <mxCell id="QlX3soP_JLZuqbn-heM_-133" value="&#39;l&#39;" style="shape=partialRectangle;html=1;whiteSpace=wrap;connectable=0;strokeColor=inherit;overflow=hidden;fillColor=none;top=0;left=0;bottom=0;right=0;pointerEvents=1;fontSize=16;" parent="QlX3soP_JLZuqbn-heM_-132" vertex="1">
          <mxGeometry x="146" width="48" height="30" as="geometry">
            <mxRectangle width="48" height="30" as="alternateBounds" />
          </mxGeometry>
        </mxCell>
        <mxCell id="QlX3soP_JLZuqbn-heM_-134" value="&#39;y&#39;" style="shape=partialRectangle;html=1;whiteSpace=wrap;connectable=0;strokeColor=inherit;overflow=hidden;fillColor=none;top=0;left=0;bottom=0;right=0;pointerEvents=1;fontSize=16;" parent="QlX3soP_JLZuqbn-heM_-132" vertex="1">
          <mxGeometry x="194" width="49" height="30" as="geometry">
            <mxRectangle width="49" height="30" as="alternateBounds" />
          </mxGeometry>
        </mxCell>
        <mxCell id="QlX3soP_JLZuqbn-heM_-135" value="&#39;\0&#39;" style="shape=partialRectangle;html=1;whiteSpace=wrap;connectable=0;strokeColor=inherit;overflow=hidden;fillColor=none;top=0;left=0;bottom=0;right=0;pointerEvents=1;fontSize=16;" parent="QlX3soP_JLZuqbn-heM_-132" vertex="1">
          <mxGeometry x="243" width="48" height="30" as="geometry">
            <mxRectangle width="48" height="30" as="alternateBounds" />
          </mxGeometry>
        </mxCell>
        <mxCell id="Z0OBJolnR7GVGm6uMOl_-1" value="8001" style="rounded=0;whiteSpace=wrap;html=1;" parent="1" vertex="1">
          <mxGeometry x="548" y="763" width="50" height="25" as="geometry" />
        </mxCell>
        <mxCell id="Z0OBJolnR7GVGm6uMOl_-2" value="" style="rounded=0;whiteSpace=wrap;html=1;" parent="1" vertex="1">
          <mxGeometry x="548" y="804" width="50" height="25" as="geometry" />
        </mxCell>
        <mxCell id="Z0OBJolnR7GVGm6uMOl_-3" value="keyM" style="text;html=1;align=center;verticalAlign=middle;whiteSpace=wrap;rounded=0;" parent="1" vertex="1">
          <mxGeometry x="478" y="763" width="60" height="30" as="geometry" />
        </mxCell>
        <mxCell id="Z0OBJolnR7GVGm6uMOl_-4" value="nextM" style="text;html=1;align=center;verticalAlign=middle;whiteSpace=wrap;rounded=0;" parent="1" vertex="1">
          <mxGeometry x="478" y="804" width="60" height="30" as="geometry" />
        </mxCell>
        <mxCell id="Z0OBJolnR7GVGm6uMOl_-5" value="" style="rounded=0;whiteSpace=wrap;html=1;" parent="1" vertex="1">
          <mxGeometry x="553" y="666" width="50" height="25" as="geometry" />
        </mxCell>
        <mxCell id="Z0OBJolnR7GVGm6uMOl_-6" value="7" style="rounded=0;whiteSpace=wrap;html=1;" parent="1" vertex="1">
          <mxGeometry x="553" y="702" width="50" height="25" as="geometry" />
        </mxCell>
        <mxCell id="Z0OBJolnR7GVGm6uMOl_-7" value="charsM" style="text;html=1;align=center;verticalAlign=middle;whiteSpace=wrap;rounded=0;" parent="1" vertex="1">
          <mxGeometry x="483" y="661" width="60" height="30" as="geometry" />
        </mxCell>
        <mxCell id="Z0OBJolnR7GVGm6uMOl_-8" value="lengthM" style="text;html=1;align=center;verticalAlign=middle;whiteSpace=wrap;rounded=0;" parent="1" vertex="1">
          <mxGeometry x="483" y="702" width="60" height="30" as="geometry" />
        </mxCell>
        <mxCell id="Z0OBJolnR7GVGm6uMOl_-11" value="" style="rounded=0;whiteSpace=wrap;html=1;" parent="1" vertex="1">
          <mxGeometry x="998" y="634" width="205" height="236" as="geometry" />
        </mxCell>
        <mxCell id="Z0OBJolnR7GVGm6uMOl_-12" value="" style="rounded=0;whiteSpace=wrap;html=1;" parent="1" vertex="1">
          <mxGeometry x="1031" y="654" width="140" height="85" as="geometry" />
        </mxCell>
        <mxCell id="Z0OBJolnR7GVGm6uMOl_-13" value="8003" style="rounded=0;whiteSpace=wrap;html=1;" parent="1" vertex="1">
          <mxGeometry x="1103" y="764" width="50" height="25" as="geometry" />
        </mxCell>
        <mxCell id="Z0OBJolnR7GVGm6uMOl_-14" value="" style="rounded=0;whiteSpace=wrap;html=1;" parent="1" vertex="1">
          <mxGeometry x="1103" y="805" width="50" height="25" as="geometry" />
        </mxCell>
        <mxCell id="Z0OBJolnR7GVGm6uMOl_-15" value="keyM" style="text;html=1;align=center;verticalAlign=middle;whiteSpace=wrap;rounded=0;" parent="1" vertex="1">
          <mxGeometry x="1033" y="764" width="60" height="30" as="geometry" />
        </mxCell>
        <mxCell id="Z0OBJolnR7GVGm6uMOl_-16" value="nextM" style="text;html=1;align=center;verticalAlign=middle;whiteSpace=wrap;rounded=0;" parent="1" vertex="1">
          <mxGeometry x="1033" y="805" width="60" height="30" as="geometry" />
        </mxCell>
        <mxCell id="Z0OBJolnR7GVGm6uMOl_-17" value="" style="rounded=0;whiteSpace=wrap;html=1;" parent="1" vertex="1">
          <mxGeometry x="1108" y="667" width="50" height="25" as="geometry" />
        </mxCell>
        <mxCell id="Z0OBJolnR7GVGm6uMOl_-18" value="5" style="rounded=0;whiteSpace=wrap;html=1;" parent="1" vertex="1">
          <mxGeometry x="1108" y="703" width="50" height="25" as="geometry" />
        </mxCell>
        <mxCell id="Z0OBJolnR7GVGm6uMOl_-19" value="charsM" style="text;html=1;align=center;verticalAlign=middle;whiteSpace=wrap;rounded=0;" parent="1" vertex="1">
          <mxGeometry x="1038" y="662" width="60" height="30" as="geometry" />
        </mxCell>
        <mxCell id="Z0OBJolnR7GVGm6uMOl_-20" value="lengthM" style="text;html=1;align=center;verticalAlign=middle;whiteSpace=wrap;rounded=0;" parent="1" vertex="1">
          <mxGeometry x="1038" y="703" width="60" height="30" as="geometry" />
        </mxCell>
        <mxCell id="Z0OBJolnR7GVGm6uMOl_-21" value="" style="rounded=0;whiteSpace=wrap;html=1;" parent="1" vertex="1">
          <mxGeometry x="728" y="635" width="205" height="236" as="geometry" />
        </mxCell>
        <mxCell id="Z0OBJolnR7GVGm6uMOl_-22" value="" style="rounded=0;whiteSpace=wrap;html=1;" parent="1" vertex="1">
          <mxGeometry x="761" y="655" width="140" height="85" as="geometry" />
        </mxCell>
        <mxCell id="Z0OBJolnR7GVGm6uMOl_-23" value="8002" style="rounded=0;whiteSpace=wrap;html=1;" parent="1" vertex="1">
          <mxGeometry x="833" y="765" width="50" height="25" as="geometry" />
        </mxCell>
        <mxCell id="Z0OBJolnR7GVGm6uMOl_-24" value="" style="rounded=0;whiteSpace=wrap;html=1;" parent="1" vertex="1">
          <mxGeometry x="833" y="806" width="50" height="25" as="geometry" />
        </mxCell>
        <mxCell id="Z0OBJolnR7GVGm6uMOl_-25" value="keyM" style="text;html=1;align=center;verticalAlign=middle;whiteSpace=wrap;rounded=0;" parent="1" vertex="1">
          <mxGeometry x="763" y="765" width="60" height="30" as="geometry" />
        </mxCell>
        <mxCell id="Z0OBJolnR7GVGm6uMOl_-26" value="nextM" style="text;html=1;align=center;verticalAlign=middle;whiteSpace=wrap;rounded=0;" parent="1" vertex="1">
          <mxGeometry x="763" y="806" width="60" height="30" as="geometry" />
        </mxCell>
        <mxCell id="Z0OBJolnR7GVGm6uMOl_-27" value="?" style="rounded=0;whiteSpace=wrap;html=1;" parent="1" vertex="1">
          <mxGeometry x="838" y="668" width="50" height="25" as="geometry" />
        </mxCell>
        <mxCell id="Z0OBJolnR7GVGm6uMOl_-28" value="5" style="rounded=0;whiteSpace=wrap;html=1;" parent="1" vertex="1">
          <mxGeometry x="838" y="704" width="50" height="25" as="geometry" />
        </mxCell>
        <mxCell id="Z0OBJolnR7GVGm6uMOl_-29" value="charsM" style="text;html=1;align=center;verticalAlign=middle;whiteSpace=wrap;rounded=0;" parent="1" vertex="1">
          <mxGeometry x="768" y="663" width="60" height="30" as="geometry" />
        </mxCell>
        <mxCell id="Z0OBJolnR7GVGm6uMOl_-30" value="lengthM" style="text;html=1;align=center;verticalAlign=middle;whiteSpace=wrap;rounded=0;" parent="1" vertex="1">
          <mxGeometry x="768" y="704" width="60" height="30" as="geometry" />
        </mxCell>
        <mxCell id="Z0OBJolnR7GVGm6uMOl_-32" value="" style="curved=1;endArrow=classic;html=1;rounded=0;exitX=0.6;exitY=1.1;exitDx=0;exitDy=0;exitPerimeter=0;" parent="1" source="Z0OBJolnR7GVGm6uMOl_-53" edge="1">
          <mxGeometry width="50" height="50" relative="1" as="geometry">
            <mxPoint x="574" y="712" as="sourcePoint" />
            <mxPoint x="468" y="503" as="targetPoint" />
            <Array as="points">
              <mxPoint x="568" y="643" />
              <mxPoint x="538" y="573" />
            </Array>
          </mxGeometry>
        </mxCell>
        <mxCell id="Z0OBJolnR7GVGm6uMOl_-33" value="" style="curved=1;endArrow=classic;html=1;rounded=0;entryX=0.086;entryY=1;entryDx=0;entryDy=0;entryPerimeter=0;" parent="1" target="QlX3soP_JLZuqbn-heM_-132" edge="1">
          <mxGeometry width="50" height="50" relative="1" as="geometry">
            <mxPoint x="1138" y="681.5" as="sourcePoint" />
            <mxPoint x="1108" y="580" as="targetPoint" />
            <Array as="points">
              <mxPoint x="1128" y="620" />
            </Array>
          </mxGeometry>
        </mxCell>
        <mxCell id="Z0OBJolnR7GVGm6uMOl_-34" value="" style="curved=1;endArrow=classic;html=1;rounded=0;entryX=0.015;entryY=0.911;entryDx=0;entryDy=0;exitX=0.85;exitY=1.1;exitDx=0;exitDy=0;exitPerimeter=0;entryPerimeter=0;" parent="1" source="Z0OBJolnR7GVGm6uMOl_-47" target="Z0OBJolnR7GVGm6uMOl_-11" edge="1">
          <mxGeometry width="50" height="50" relative="1" as="geometry">
            <mxPoint x="580" y="853" as="sourcePoint" />
            <mxPoint x="605.5" y="654" as="targetPoint" />
            <Array as="points">
              <mxPoint x="830" y="950" />
            </Array>
          </mxGeometry>
        </mxCell>
        <mxCell id="Z0OBJolnR7GVGm6uMOl_-35" value="" style="line;strokeWidth=2;html=1;" parent="1" vertex="1">
          <mxGeometry x="1255" y="888" width="103" height="10" as="geometry" />
        </mxCell>
        <mxCell id="Z0OBJolnR7GVGm6uMOl_-36" value="" style="line;strokeWidth=2;html=1;" parent="1" vertex="1">
          <mxGeometry x="1265" y="898" width="73" height="10" as="geometry" />
        </mxCell>
        <mxCell id="Z0OBJolnR7GVGm6uMOl_-37" value="" style="line;strokeWidth=2;html=1;" parent="1" vertex="1">
          <mxGeometry x="1275" y="908" width="53" height="10" as="geometry" />
        </mxCell>
        <mxCell id="Z0OBJolnR7GVGm6uMOl_-38" value="" style="curved=1;endArrow=classic;html=1;rounded=0;exitX=1.05;exitY=0.225;exitDx=0;exitDy=0;exitPerimeter=0;entryX=0;entryY=0.5;entryDx=0;entryDy=0;" parent="1" source="Z0OBJolnR7GVGm6uMOl_-50" target="Z0OBJolnR7GVGm6uMOl_-11" edge="1">
          <mxGeometry width="50" height="50" relative="1" as="geometry">
            <mxPoint x="858" y="852" as="sourcePoint" />
            <mxPoint x="1000" y="773" as="targetPoint" />
            <Array as="points">
              <mxPoint x="930" y="750" />
            </Array>
          </mxGeometry>
        </mxCell>
        <mxCell id="Z0OBJolnR7GVGm6uMOl_-39" value="" style="curved=1;endArrow=classic;html=1;rounded=0;entryX=0.495;entryY=0.3;entryDx=0;entryDy=0;entryPerimeter=0;exitX=0.4;exitY=0.6;exitDx=0;exitDy=0;exitPerimeter=0;" parent="1" target="Z0OBJolnR7GVGm6uMOl_-35" edge="1">
          <mxGeometry width="50" height="50" relative="1" as="geometry">
            <mxPoint x="1128" y="817" as="sourcePoint" />
            <mxPoint x="1288" y="731" as="targetPoint" />
            <Array as="points">
              <mxPoint x="1258" y="817" />
            </Array>
          </mxGeometry>
        </mxCell>
        <mxCell id="Z0OBJolnR7GVGm6uMOl_-40" value="AR&lt;div style=&quot;font-size: 14px;&quot;&gt;DictionaryList::remove&lt;/div&gt;" style="text;html=1;align=center;verticalAlign=middle;whiteSpace=wrap;rounded=0;rotation=-90;fontSize=14;" parent="1" vertex="1">
          <mxGeometry x="70" y="243" width="130" height="30" as="geometry" />
        </mxCell>
        <mxCell id="Z0OBJolnR7GVGm6uMOl_-41" value="" style="curved=1;endArrow=classic;html=1;rounded=0;entryX=0;entryY=0;entryDx=0;entryDy=0;" parent="1" target="Z0OBJolnR7GVGm6uMOl_-11" edge="1">
          <mxGeometry width="50" height="50" relative="1" as="geometry">
            <mxPoint x="310" y="607" as="sourcePoint" />
            <mxPoint x="440" y="700" as="targetPoint" />
            <Array as="points">
              <mxPoint x="440" y="590" />
              <mxPoint x="870" y="590" />
            </Array>
          </mxGeometry>
        </mxCell>
        <mxCell id="Z0OBJolnR7GVGm6uMOl_-42" value="Temporary anonymous space" style="text;html=1;align=center;verticalAlign=middle;resizable=0;points=[];autosize=1;strokeColor=none;fillColor=none;" parent="1" vertex="1">
          <mxGeometry x="200" y="443" width="180" height="30" as="geometry" />
        </mxCell>
        <mxCell id="Z0OBJolnR7GVGm6uMOl_-45" value="" style="shape=waypoint;sketch=0;fillStyle=solid;size=6;pointerEvents=1;points=[];fillColor=none;resizable=0;rotatable=0;perimeter=centerPerimeter;snapToPoint=1;strokeWidth=2;" parent="1" vertex="1">
          <mxGeometry x="296" y="597" width="20" height="20" as="geometry" />
        </mxCell>
        <mxCell id="Z0OBJolnR7GVGm6uMOl_-47" value="" style="shape=waypoint;sketch=0;fillStyle=solid;size=6;pointerEvents=1;points=[];fillColor=none;resizable=0;rotatable=0;perimeter=centerPerimeter;snapToPoint=1;strokeWidth=2;" parent="1" vertex="1">
          <mxGeometry x="567" y="809" width="20" height="20" as="geometry" />
        </mxCell>
        <mxCell id="Z0OBJolnR7GVGm6uMOl_-50" value="" style="shape=waypoint;sketch=0;fillStyle=solid;size=6;pointerEvents=1;points=[];fillColor=none;resizable=0;rotatable=0;perimeter=centerPerimeter;snapToPoint=1;strokeWidth=2;" parent="1" vertex="1">
          <mxGeometry x="847" y="809.5" width="20" height="20" as="geometry" />
        </mxCell>
        <mxCell id="Z0OBJolnR7GVGm6uMOl_-51" value="" style="shape=waypoint;sketch=0;fillStyle=solid;size=6;pointerEvents=1;points=[];fillColor=none;resizable=0;rotatable=0;perimeter=centerPerimeter;snapToPoint=1;strokeWidth=2;" parent="1" vertex="1">
          <mxGeometry x="1115" y="808" width="20" height="20" as="geometry" />
        </mxCell>
        <mxCell id="Z0OBJolnR7GVGm6uMOl_-53" value="" style="shape=waypoint;sketch=0;fillStyle=solid;size=6;pointerEvents=1;points=[];fillColor=none;resizable=0;rotatable=0;perimeter=centerPerimeter;snapToPoint=1;strokeWidth=2;" parent="1" vertex="1">
          <mxGeometry x="565" y="669" width="20" height="20" as="geometry" />
        </mxCell>
        <mxCell id="Z0OBJolnR7GVGm6uMOl_-55" value="" style="shape=waypoint;sketch=0;fillStyle=solid;size=6;pointerEvents=1;points=[];fillColor=none;resizable=0;rotatable=0;perimeter=centerPerimeter;snapToPoint=1;strokeWidth=2;" parent="1" vertex="1">
          <mxGeometry x="1127" y="670.5" width="20" height="20" as="geometry" />
        </mxCell>
        <mxCell id="Z0OBJolnR7GVGm6uMOl_-57" value="" style="whiteSpace=wrap;html=1;verticalAlign=top;strokeWidth=1;" parent="1" vertex="1">
          <mxGeometry x="270" y="313" width="60" height="30" as="geometry" />
        </mxCell>
        <mxCell id="Z0OBJolnR7GVGm6uMOl_-61" value="keyA" style="text;html=1;align=center;verticalAlign=middle;whiteSpace=wrap;rounded=0;" parent="1" vertex="1">
          <mxGeometry x="200" y="273" width="60" height="30" as="geometry" />
        </mxCell>
        <mxCell id="Z0OBJolnR7GVGm6uMOl_-62" value="this" style="text;html=1;align=center;verticalAlign=middle;whiteSpace=wrap;rounded=0;" parent="1" vertex="1">
          <mxGeometry x="201" y="313" width="60" height="30" as="geometry" />
        </mxCell>
        <mxCell id="Z0OBJolnR7GVGm6uMOl_-64" value="" style="shape=waypoint;sketch=0;fillStyle=solid;size=6;pointerEvents=1;points=[];fillColor=#a20025;resizable=0;rotatable=0;perimeter=centerPerimeter;snapToPoint=1;fontColor=#ffffff;strokeColor=#6F0000;strokeWidth=3;" parent="1" vertex="1">
          <mxGeometry x="290" y="278" width="20" height="20" as="geometry" />
        </mxCell>
        <mxCell id="Z0OBJolnR7GVGm6uMOl_-65" value="" style="shape=waypoint;sketch=0;fillStyle=solid;size=6;pointerEvents=1;points=[];fillColor=#a20025;resizable=0;rotatable=0;perimeter=centerPerimeter;snapToPoint=1;fontColor=#ffffff;strokeColor=#6F0000;strokeWidth=3;" parent="1" vertex="1">
          <mxGeometry x="290" y="318" width="20" height="20" as="geometry" />
        </mxCell>
        <mxCell id="Z0OBJolnR7GVGm6uMOl_-66" value="" style="shape=waypoint;sketch=0;fillStyle=auto;size=6;pointerEvents=1;points=[];fillColor=none;resizable=0;rotatable=0;perimeter=centerPerimeter;snapToPoint=1;strokeWidth=3;strokeColor=#c7c7c7;perimeterSpacing=4;gradientColor=none;" parent="1" vertex="1">
          <mxGeometry x="240" y="428" width="20" height="20" as="geometry" />
        </mxCell>
        <mxCell id="Z0OBJolnR7GVGm6uMOl_-68" value="" style="endArrow=none;html=1;rounded=0;endFill=0;strokeWidth=1;fillColor=none;curved=1;entryX=0.35;entryY=0.8;entryDx=0;entryDy=0;entryPerimeter=0;exitX=0.45;exitY=1.1;exitDx=0;exitDy=0;exitPerimeter=0;" parent="1" source="Z0OBJolnR7GVGm6uMOl_-66" target="Z0OBJolnR7GVGm6uMOl_-64" edge="1">
          <mxGeometry width="50" height="50" relative="1" as="geometry">
            <mxPoint x="146" y="487" as="sourcePoint" />
            <mxPoint x="110" y="313" as="targetPoint" />
            <Array as="points">
              <mxPoint x="60" y="313" />
            </Array>
          </mxGeometry>
        </mxCell>
        <mxCell id="Z0OBJolnR7GVGm6uMOl_-69" value="" style="endArrow=none;html=1;rounded=0;endFill=0;strokeWidth=1;fillColor=none;curved=1;entryX=0.35;entryY=0.8;entryDx=0;entryDy=0;entryPerimeter=0;exitX=0;exitY=0;exitDx=0;exitDy=0;startArrow=classic;startFill=1;" parent="1" source="QlX3soP_JLZuqbn-heM_-34" edge="1">
          <mxGeometry width="50" height="50" relative="1" as="geometry">
            <mxPoint x="250" y="478" as="sourcePoint" />
            <mxPoint x="300" y="328" as="targetPoint" />
            <Array as="points">
              <mxPoint x="60" y="353" />
            </Array>
          </mxGeometry>
        </mxCell>
        <mxCell id="Z0OBJolnR7GVGm6uMOl_-70" value="" style="whiteSpace=wrap;html=1;verticalAlign=top;strokeWidth=1;" parent="1" vertex="1">
          <mxGeometry x="280" y="206" width="60" height="30" as="geometry" />
        </mxCell>
        <mxCell id="Z0OBJolnR7GVGm6uMOl_-72" value="doomed_node" style="text;html=1;align=center;verticalAlign=middle;whiteSpace=wrap;rounded=0;" parent="1" vertex="1">
          <mxGeometry x="206" y="211" width="60" height="30" as="geometry" />
        </mxCell>
        <mxCell id="Z0OBJolnR7GVGm6uMOl_-75" value="" style="shape=waypoint;sketch=0;fillStyle=solid;size=6;pointerEvents=1;points=[];fillColor=#a20025;resizable=0;rotatable=0;perimeter=centerPerimeter;snapToPoint=1;fontColor=#ffffff;strokeColor=#6F0000;strokeWidth=3;" parent="1" vertex="1">
          <mxGeometry x="299" y="215" width="20" height="20" as="geometry" />
        </mxCell>
        <mxCell id="Z0OBJolnR7GVGm6uMOl_-76" value="" style="endArrow=none;html=1;rounded=0;endFill=0;strokeWidth=1;fillColor=none;curved=1;startArrow=classic;startFill=1;exitX=0.01;exitY=0.377;exitDx=0;exitDy=0;exitPerimeter=0;" parent="1" source="QlX3soP_JLZuqbn-heM_-17" edge="1">
          <mxGeometry width="50" height="50" relative="1" as="geometry">
            <mxPoint x="317.5" y="607" as="sourcePoint" />
            <mxPoint x="306" y="225" as="targetPoint" />
            <Array as="points">
              <mxPoint x="90" y="780" />
              <mxPoint x="30" y="350" />
            </Array>
          </mxGeometry>
        </mxCell>
        <mxCell id="58og8UQnzWO5Z2GqmFNS-1" value="Exercise B Part I" style="text;html=1;align=center;verticalAlign=middle;whiteSpace=wrap;rounded=0;fontSize=20;fontStyle=1" vertex="1" parent="1">
          <mxGeometry x="40" y="20" width="130" height="30" as="geometry" />
        </mxCell>
      </root>
    </mxGraphModel>
  </diagram>
</mxfile>
